# xmcd
#
# Track frame offsets:
#	150
#	28960
#	47204
#	68002
#	89072
#	112015
#	133948
#	160311
#	180074
#	207762
#	237519
#	261029
#	289036
#
# Disc length: 4363 seconds
#
# Revision: 1
# Processed by: cddbd v1.5.2PL0 Copyright (c) Steve Scherf et al.
# Submitted via: audiograbber 1.83.01
#
DISCID=bf11090d
DTITLE=Various Artist - Cosmic Balearic Beats Vol. 1
DYEAR=2008
DGENRE=Dance
TTITLE0=Stratus - Footprints
TTITLE1=Phoreski - 80's Boy
TTITLE2=Coyote - Grow Your Hair
TTITLE3=Maelstrom - Petrichor
TTITLE4=Homerun - The Killer Storm
TTITLE5=Bottin - Fondamente Nove
TTITLE6=Rubber Room - Cockroach
TTITLE7=Massimiliano Pagliara - Bu
TTITLE8=Spektrum - Fit Together (Cosmo Remix)
TTITLE9=Lullabies in the Dark - Estrella
TTITLE10=Ichisan - Radar Pulse Is Sent
TTITLE11=In Flagranti - Personal Angst
TTITLE12=Lovelock - Don't Turn Away (From My Love)
EXTD=
EXTT0=
EXTT1=
EXTT2=
EXTT3=
EXTT4=
EXTT5=
EXTT6=
EXTT7=
EXTT8=
EXTT9=
EXTT10=
EXTT11=
EXTT12=
PLAYORDER=
